<?xml version="1.0" standalone="no"?>
<!DOCTYPE svg PUBLIC "-//W3C//DTD SVG 20010904//EN"
 "http://www.w3.org/TR/2001/REC-SVG-20010904/DTD/svg10.dtd">
<svg version="1.0" xmlns="http://www.w3.org/2000/svg"
 width="512.000000pt" height="250.000000pt" viewBox="0 0 512.000000 250.000000"
 preserveAspectRatio="xMidYMid meet">
<metadata>
Created by potrace 1.16, written by Peter Selinger 2001-2019
</metadata>
<g transform="translate(0.000000,250.000000) scale(0.100000,-0.100000)"
fill="#000000" stroke="none">
<path d="M0 1250 l0 -1250 2560 0 2560 0 0 1250 0 1250 -2560 0 -2560 0 0
-1250z m1600 1119 c0 -6 10 -19 23 -30 16 -13 18 -18 7 -19 -13 0 -13 -1 0
-10 10 -6 11 -10 3 -10 -7 0 -13 -4 -13 -10 0 -6 27 -10 60 -10 60 0 60 0 56
27 -3 14 -10 31 -16 37 -36 36 -51 36 1251 36 1110 0 1260 -2 1249 -15 -7 -8
-28 -17 -47 -21 -25 -5 -31 -9 -21 -15 10 -7 10 -9 -2 -9 -13 0 -13 -1 0 -10
10 -6 11 -10 3 -10 -7 0 -13 -5 -13 -10 0 -7 27 -10 73 -8 67 3 72 5 73 26 1
12 2 27 3 32 0 6 17 10 37 10 28 0 35 3 30 15 -8 23 427 22 482 -1 47 -19 88
-58 113 -106 18 -36 19 -72 19 -1013 0 -1067 3 -1010 -60 -1073 -57 -58 -79
-62 -326 -62 -123 0 -224 3 -225 8 -6 57 -17 52 115 52 248 1 333 14 333 54 0
19 3 20 -38 -2 -30 -15 -80 -18 -444 -22 -225 -3 -398 -7 -382 -9 15 -2 30 -4
35 -5 4 -1 60 -6 125 -10 117 -8 119 -9 114 -32 -2 -13 1 -25 7 -28 6 -2 -557
-5 -1251 -5 -1196 -1 -1263 0 -1264 17 -1 9 -1 23 0 29 1 9 -15 13 -54 13 -30
0 -55 -3 -56 -7 0 -5 -2 -16 -4 -25 -2 -12 2 -15 13 -11 15 4 15 3 2 -6 -10
-7 -211 -11 -648 -11 -691 0 -673 -1 -735 58 -16 15 -37 44 -48 64 -18 36 -19
72 -19 1008 0 1062 -3 1009 58 1074 15 16 45 37 67 47 38 17 78 19 678 19 453
0 637 -3 637 -11z"/>
<path d="M1353 868 c-52 -37 -65 -76 -61 -184 3 -93 3 -94 41 -131 l37 -38
1310 -3 c1445 -2 1344 -7 1392 60 20 29 23 45 23 128 0 83 -3 99 -23 128 -48
66 51 62 -1384 62 l-1303 0 -32 -22z m349 -65 c10 -9 18 -30 18 -49 0 -39 -38
-74 -81 -74 -28 0 -29 -2 -29 -45 0 -33 -4 -45 -15 -45 -12 0 -15 19 -15 115
l0 115 52 0 c34 0 58 -6 70 -17z m1214 -6 c22 -19 28 -34 32 -80 4 -54 3 -58
-32 -93 -33 -33 -40 -36 -77 -31 -50 7 -76 29 -89 76 -13 48 3 104 37 131 36
28 94 27 129 -3z m-614 -54 c14 -13 18 -31 18 -85 0 -62 -9 -84 -25 -58 -4 7
-12 7 -25 0 -30 -16 -48 -12 -66 15 -15 23 -15 27 0 50 10 14 30 27 51 31 19
3 35 10 35 14 0 17 -29 31 -54 24 -24 -6 -34 4 -19 19 12 13 67 7 85 -10z
m322 -5 c11 -15 16 -45 16 -85 0 -57 -10 -78 -24 -54 -4 5 -18 5 -36 -2 -24
-9 -32 -8 -49 8 -39 34 -16 78 47 91 18 4 32 10 32 15 0 14 -36 28 -58 22 -12
-3 -22 -1 -22 4 0 32 72 32 94 1z m647 12 c13 -7 19 -7 19 0 0 5 5 10 10 10 6
0 10 -38 10 -95 0 -83 -3 -98 -21 -116 -15 -15 -30 -19 -61 -17 -23 2 -43 9
-46 15 -2 9 5 11 26 7 37 -7 72 10 72 36 0 17 -4 18 -25 10 -75 -29 -125 80
-65 140 22 22 51 25 81 10z m444 -4 c15 -11 20 -30 23 -85 3 -46 0 -71 -6 -71
-6 0 -14 5 -17 10 -4 7 -13 6 -27 -1 -30 -16 -67 -3 -74 27 -8 32 16 60 63 71
34 8 35 9 19 25 -12 12 -26 16 -46 11 -18 -3 -30 -1 -30 5 0 23 66 29 95 8z"/>
<path d="M2805 775 c-19 -18 -25 -35 -25 -67 0 -59 22 -88 65 -88 62 0 94 74
60 139 -24 48 -63 54 -100 16z"/>
</g>
</svg>
