<?xml version="1.0" standalone="no"?>
<!DOCTYPE svg PUBLIC "-//W3C//DTD SVG 20010904//EN"
 "http://www.w3.org/TR/2001/REC-SVG-20010904/DTD/svg10.dtd">
<svg version="1.0" xmlns="http://www.w3.org/2000/svg"
 width="512.000000pt" height="250.000000pt" viewBox="0 0 512.000000 250.000000"
 preserveAspectRatio="xMidYMid meet">
<metadata>
Created by potrace 1.16, written by Peter Selinger 2001-2019
</metadata>
<g transform="translate(0.000000,250.000000) scale(0.100000,-0.100000)"
fill="#000000" stroke="none">
<path d="M0 1250 l0 -1250 2560 0 2560 0 0 1250 0 1250 -2560 0 -2560 0 0
-1250z m1600 1119 c0 -6 10 -19 23 -30 16 -13 18 -18 7 -19 -13 0 -13 -1 0
-10 10 -6 11 -10 3 -10 -7 0 -13 -4 -13 -10 0 -6 27 -10 60 -10 60 0 60 0 56
27 -3 14 -10 31 -16 37 -36 36 -51 36 1251 36 1110 0 1260 -2 1249 -15 -7 -8
-28 -17 -47 -21 -25 -5 -31 -9 -21 -15 10 -7 10 -9 -2 -9 -13 0 -13 -1 0 -10
10 -6 11 -10 3 -10 -7 0 -13 -5 -13 -10 0 -7 27 -10 73 -8 67 3 72 5 73 26 1
12 2 27 3 32 0 6 17 10 37 10 28 0 35 3 30 15 -8 23 427 22 482 -1 47 -19 88
-58 113 -106 18 -36 19 -72 19 -1013 0 -1067 3 -1010 -60 -1073 -57 -58 -79
-62 -326 -62 -123 0 -224 3 -225 8 -6 57 -17 52 115 52 248 1 333 14 333 54 0
19 3 20 -38 -2 -30 -15 -80 -18 -444 -22 -225 -3 -398 -7 -382 -9 15 -2 30 -4
35 -5 4 -1 60 -6 125 -10 117 -8 119 -9 114 -32 -2 -13 1 -25 7 -28 6 -2 -557
-5 -1251 -5 -1196 -1 -1263 0 -1264 17 -1 9 -1 23 0 29 1 9 -15 13 -54 13 -30
0 -55 -3 -56 -7 0 -5 -2 -16 -4 -25 -2 -12 2 -15 13 -11 15 4 15 3 2 -6 -10
-7 -211 -11 -648 -11 -691 0 -673 -1 -735 58 -16 15 -37 44 -48 64 -18 36 -19
72 -19 1008 0 1062 -3 1009 58 1074 15 16 45 37 67 47 38 17 78 19 678 19 453
0 637 -3 637 -11z"/>
<path d="M1922 820 c-59 -36 -73 -72 -70 -180 2 -76 7 -100 23 -122 46 -62 -4
-58 880 -58 890 0 845 -3 885 63 16 26 20 50 20 130 l0 98 -39 42 -40 42 -813
3 c-797 2 -814 2 -846 -18z m186 -141 l30 -91 29 88 c23 70 34 90 50 92 18 3
21 -4 26 -65 11 -116 9 -163 -8 -163 -12 0 -15 14 -16 68 0 37 -4 76 -9 87 -5
11 -9 14 -9 7 -2 -32 -55 -162 -66 -162 -7 0 -26 42 -43 93 -30 90 -31 91 -32
46 0 -79 -12 -139 -26 -139 -10 0 -12 18 -8 83 8 128 12 147 33 147 15 0 25
-20 49 -91z m312 76 c0 -11 -12 -15 -45 -15 -45 0 -45 0 -45 -35 0 -34 1 -35
40 -35 22 0 40 -4 40 -10 0 -5 -18 -10 -40 -10 l-40 0 0 -40 0 -40 45 0 c33 0
45 -4 45 -15 0 -12 -14 -15 -65 -15 l-65 0 0 115 0 115 65 0 c51 0 65 -3 65
-15z m198 -2 c2 -9 -10 -13 -43 -13 -90 0 -129 -88 -66 -151 46 -46 91 -37 91
17 0 27 -4 34 -20 34 -11 0 -20 5 -20 10 0 6 16 10 35 10 l35 0 0 -55 c0 -50
-2 -55 -26 -61 -46 -12 -107 3 -131 31 -46 53 -22 159 41 185 30 13 99 7 104
-7z m193 -100 c34 -101 36 -113 20 -113 -12 0 -21 11 -27 33 -9 29 -14 32 -51
35 -39 3 -42 1 -48 -28 -6 -28 -29 -50 -40 -38 -3 2 12 55 33 116 31 96 40
112 56 110 15 -2 28 -28 57 -115z m412 5 c20 -61 35 -114 32 -116 -11 -11 -34
10 -40 37 -6 29 -10 31 -49 31 -40 0 -44 -2 -52 -32 -6 -18 -17 -34 -26 -36
-15 -3 -12 13 17 100 20 57 37 109 40 116 2 6 13 12 22 12 15 0 27 -24 56
-112z m157 23 l55 -88 0 85 c0 59 4 86 13 89 9 4 12 -23 12 -111 0 -92 -3
-116 -14 -116 -7 0 -39 42 -70 92 l-56 93 0 -93 c0 -75 -3 -92 -15 -92 -12 0
-15 19 -15 115 0 149 12 152 90 26z"/>
</g>
</svg>
