<?xml version="1.0" standalone="no"?>
<!DOCTYPE svg PUBLIC "-//W3C//DTD SVG 20010904//EN"
 "http://www.w3.org/TR/2001/REC-SVG-20010904/DTD/svg10.dtd">
<svg version="1.0" xmlns="http://www.w3.org/2000/svg"
 width="512.000000pt" height="250.000000pt" viewBox="0 0 512.000000 250.000000"
 preserveAspectRatio="xMidYMid meet">
<metadata>
Created by potrace 1.16, written by Peter Selinger 2001-2019
</metadata>
<g transform="translate(0.000000,250.000000) scale(0.100000,-0.100000)"
fill="#000000" stroke="none">
<path d="M0 1250 l0 -1250 2560 0 2560 0 0 1250 0 1250 -2560 0 -2560 0 0
-1250z m1218 1123 c259 -5 322 -9 322 -20 0 -7 6 -12 13 -10 7 1 13 -11 15
-29 l3 -31 -586 -6 c-643 -7 -621 -5 -667 -69 l-23 -33 -3 -867 -2 -868 28 0
c57 0 109 -81 97 -151 -4 -24 -14 -43 -27 -50 -60 -32 -9 -34 1175 -37 1023
-2 1172 -4 1180 -17 7 -13 99 -15 702 -15 l695 0 0 -30 0 -30 -1200 0 -1200 0
0 30 0 30 -100 0 -100 0 0 -30 0 -30 -582 -2 c-321 0 -596 0 -613 1 -72 6
-148 71 -170 145 -13 42 -15 191 -15 990 0 638 4 953 11 980 14 51 80 121 132
140 49 17 378 20 915 9z m3733 -22 l29 -29 0 -1022 c0 -1134 4 -1059 -68
-1133 -58 -59 -94 -66 -340 -59 l-212 5 0 28 0 28 203 3 c179 3 206 5 232 22
26 17 27 20 12 31 -24 17 -21 42 8 61 l25 16 0 764 0 764 -66 0 -65 0 2 -652
c2 -709 3 -690 -53 -750 -30 -31 -99 -68 -125 -67 -11 0 -6 5 12 11 64 23 105
60 135 123 19 38 20 69 20 688 0 568 -2 647 -15 647 -13 0 -15 -79 -15 -648
l0 -648 -22 -44 c-32 -62 -74 -84 -156 -82 -36 1 -67 3 -68 5 -6 6 21 171 30
185 3 5 7 37 11 73 3 35 10 90 15 123 5 32 9 61 8 65 -1 3 2 71 6 151 10 181
-6 424 -30 478 -10 20 -40 70 -67 111 -43 64 -93 160 -111 214 -5 16 -38 17
-506 17 l-502 0 -29 29 -29 29 0 196 0 196 -725 0 -725 0 0 29 c0 16 -6 31
-15 35 -8 3 -15 10 -15 15 0 15 113 16 1718 19 l1464 2 29 -29z m-4392 -221
c-45 -29 -74 -58 -92 -91 l-19 -34 28 34 c15 18 50 44 78 57 47 22 63 24 191
22 l140 -2 -140 -6 c-95 -4 -151 -11 -175 -21 -47 -21 -106 -89 -119 -136 -16
-55 -15 -1382 0 -1434 30 -98 108 -149 249 -160 l95 -7 -105 2 c-95 1 -110 4
-152 29 -26 15 -57 41 -69 58 -48 68 -49 79 -50 773 -1 358 -3 644 -4 636 -2
-8 -9 -123 -16 -255 -16 -305 -29 -258 -32 115 l-2 255 28 61 c34 73 89 130
143 149 37 13 39 12 42 -8 3 -14 -4 -27 -19 -37z m129 -66 c17 -3 29 -11 26
-18 -2 -6 -6 -27 -8 -46 -7 -55 -36 -251 -41 -274 -2 -12 -7 -57 -10 -101 -3
-44 -10 -136 -15 -205 -5 -69 -10 -201 -10 -295 0 -195 9 -235 72 -312 21 -25
55 -73 76 -106 20 -33 60 -86 87 -116 45 -50 81 -108 73 -117 -2 -1 -28 12
-57 31 -47 28 -56 31 -68 19 -12 -11 -81 -20 -115 -15 -14 2 -30 -42 -24 -69
5 -26 2 -29 -33 -35 -66 -11 -135 32 -160 98 -14 37 -15 1408 -1 1456 24 84
106 125 208 105z m2135 -85 c262 -44 512 -222 631 -449 43 -80 44 -90 12 -90
-21 0 -31 12 -61 69 -75 142 -210 269 -368 346 -129 62 -243 88 -387 88 -263
-1 -484 -97 -656 -287 -49 -54 -71 -72 -85 -69 -31 9 -22 28 52 107 89 95 170
156 273 206 183 88 378 114 589 79z m-940 -429 c118 -40 209 -94 275 -164 101
-106 108 -179 29 -264 -46 -48 -123 -73 -224 -73 -46 0 -87 2 -92 5 -5 3 -11
-3 -14 -14 -10 -37 -67 -12 -67 30 0 10 -12 23 -30 30 -42 17 -101 66 -123
101 l-19 29 29 29 c27 27 85 51 124 51 12 0 19 13 23 48 9 63 15 82 27 82 13
0 39 -63 39 -93 0 -23 5 -25 64 -29 86 -7 140 -34 144 -71 4 -37 -13 -57 -49
-57 -33 0 -36 7 -11 26 16 11 15 13 -11 23 -16 6 -53 14 -83 17 l-54 7 0 -76
0 -75 31 -7 c48 -11 153 4 201 28 29 15 49 34 62 60 17 36 17 41 2 81 -45 118
-234 228 -436 256 -72 10 -186 4 -152 -7 23 -9 12 -23 -18 -23 -22 0 -30 5
-30 18 0 30 16 44 66 58 73 21 186 11 297 -26z m522 -27 c45 -21 55 -55 28
-91 -27 -36 -97 -69 -156 -75 -47 -5 -48 -4 -62 30 -20 47 -19 65 5 95 43 55
120 72 185 41z m1101 -138 c4 -8 9 -39 13 -68 l6 -52 73 -3 c69 -3 73 -4 70
-25 -3 -20 -10 -22 -70 -25 l-66 -3 -9 -62 c-7 -54 -11 -62 -30 -65 -22 -3
-23 0 -23 62 l0 65 -67 3 c-62 3 -68 5 -71 26 -3 21 0 22 67 22 80 0 79 -1 62
87 -5 23 -6 45 -3 48 11 11 43 4 48 -10z m-727 -51 c46 -58 53 -177 13 -216
-27 -27 -54 -12 -95 55 l-32 52 -5 -62 c-6 -69 -13 -82 -38 -67 -24 15 -27 92
-7 160 14 47 19 55 38 52 13 -2 37 -25 62 -61 22 -32 41 -54 43 -48 2 6 -4 38
-12 71 -9 34 -16 68 -16 76 0 23 27 16 49 -12z m332 -70 c-42 -79 -39 -87 9
-26 41 51 97 86 123 76 24 -9 40 -59 33 -100 -10 -53 -84 -124 -130 -124 -33
0 -35 -2 -55 -62 -11 -35 -23 -80 -27 -100 -4 -28 -11 -38 -25 -38 -44 0 -52
86 -15 182 17 46 21 69 14 84 -15 32 8 100 49 145 51 56 63 37 24 -37z m-532
57 c8 -5 11 -16 8 -24 -4 -11 -31 -17 -104 -22 -64 -5 -91 -11 -78 -16 11 -4
36 -8 55 -8 67 -2 107 -19 121 -53 10 -26 10 -35 -2 -57 -22 -38 -56 -52 -117
-48 -62 4 -106 32 -110 70 -3 22 2 29 25 39 l28 11 -30 6 c-58 12 -39 83 28
103 33 9 160 9 176 -1z m455 -10 c26 -28 12 -41 -43 -41 -31 0 -53 -5 -61 -15
-11 -13 -7 -15 29 -15 33 0 41 -3 41 -19 0 -20 -25 -31 -72 -31 -16 0 -28 -2
-28 -4 0 -2 -2 -11 -6 -19 -4 -12 4 -13 47 -6 29 5 56 6 61 3 29 -18 -19 -67
-84 -85 -33 -8 -44 -7 -65 6 -23 15 -24 21 -20 81 4 47 10 69 22 78 17 12 17
14 -4 35 -27 27 -23 32 26 41 77 15 139 11 157 -9z m-339 -551 c9 -7 15 -29
15 -51 0 -45 -27 -69 -77 -69 -32 0 -33 -1 -33 -45 0 -33 -4 -45 -15 -45 -12
0 -15 19 -15 108 0 60 3 112 8 116 11 12 99 1 117 -14z m-702 -72 c9 -11 17
-31 17 -44 0 -21 -4 -23 -62 -26 l-63 -3 24 -24 c18 -18 30 -22 58 -18 24 4
33 2 30 -6 -2 -7 -24 -13 -48 -15 -58 -4 -84 22 -83 79 2 79 78 113 127 57z
m972 -1 c8 -12 15 -32 15 -44 0 -21 -4 -23 -55 -23 -42 0 -55 -4 -55 -15 0
-21 38 -38 71 -31 22 4 29 2 29 -9 0 -11 -12 -15 -45 -15 -56 0 -85 25 -85 74
0 49 9 67 43 81 36 15 63 9 82 -18z m161 19 c17 -12 22 -12 39 0 26 19 41 18
65 -6 26 -26 30 -150 5 -150 -11 0 -15 13 -15 53 0 64 -19 98 -47 81 -14 -8
-19 -26 -21 -73 -2 -45 -7 -61 -17 -61 -11 0 -15 13 -15 53 0 60 -17 91 -46
85 -16 -3 -19 -13 -22 -71 -3 -59 -5 -67 -22 -67 -18 0 -20 7 -20 80 0 64 3
80 15 80 8 0 15 -5 15 -11 0 -5 10 -3 22 5 28 20 38 20 64 2z m540 0 c17 -12
22 -12 39 0 25 19 37 18 63 -6 18 -17 22 -32 22 -85 0 -51 -3 -65 -15 -65 -11
0 -15 13 -15 53 0 64 -19 98 -47 81 -14 -8 -19 -26 -21 -73 -2 -45 -7 -61 -17
-61 -11 0 -15 13 -15 53 0 60 -17 91 -46 85 -16 -3 -19 -13 -22 -71 -3 -59 -5
-67 -22 -67 -18 0 -20 7 -20 80 0 64 3 80 15 80 8 0 15 -5 15 -11 0 -5 10 -3
22 5 28 20 38 20 64 2z"/>
<path d="M3376 2218 c-15 -59 -17 -58 124 -58 117 0 130 2 130 18 0 9 3 27 6
40 6 22 6 22 -124 22 -126 0 -130 -1 -136 -22z"/>
<path d="M3671 2214 c-43 -55 -47 -54 279 -54 l300 0 0 24 c0 54 -9 56 -295
56 l-264 0 -20 -26z"/>
<path d="M4276 2209 c-3 -17 -6 -35 -6 -40 0 -5 68 -9 150 -9 137 0 150 2 150
18 0 10 -7 28 -16 40 -14 21 -22 22 -143 22 l-128 0 -7 -31z"/>
<path d="M4724 2183 l-9 -58 -51 -3 c-51 -3 -52 -4 -56 -37 l-4 -35 52 0 53 0
-6 -55 -6 -55 37 0 c31 0 36 3 36 24 0 13 3 38 6 55 6 30 8 31 60 31 l54 0 0
35 0 35 -50 0 -51 0 7 60 7 60 -35 0 c-35 0 -35 0 -44 -57z"/>
<path d="M3355 2053 c-3 -38 -9 -78 -12 -91 l-5 -23 133 3 134 3 3 33 3 32
-80 0 c-74 0 -81 2 -81 20 0 18 7 20 85 20 l85 0 0 35 0 35 -129 0 -129 0 -7
-67z"/>
<path d="M3645 2098 c12 -39 34 -48 118 -48 68 0 78 -2 73 -16 -3 -9 -6 -18
-6 -20 0 -2 -45 -4 -99 -4 l-99 0 -4 -35 -4 -35 132 0 c132 0 133 0 154 27 17
22 20 38 18 87 l-3 61 -143 3 -144 3 7 -23z"/>
<path d="M3956 2068 c-4 -29 -10 -70 -13 -90 l-6 -38 52 0 51 0 0 39 c0 68 3
71 90 71 84 0 110 12 110 51 0 18 -8 19 -139 19 l-138 0 -7 -52z"/>
<path d="M4255 2048 c-3 -40 -9 -81 -11 -90 -5 -15 2 -18 44 -18 l50 0 7 68
c3 37 9 77 12 90 5 21 2 22 -45 22 l-50 0 -7 -72z"/>
<path d="M4455 2048 c-3 -40 -9 -81 -11 -90 -5 -15 2 -18 44 -18 l50 0 7 73
c3 39 9 80 11 90 5 14 -2 17 -44 17 l-50 0 -7 -72z"/>
</g>
</svg>
